<?xml version="1.0" standalone="no"?>
<!DOCTYPE svg PUBLIC "-//W3C//DTD SVG 20010904//EN"
 "http://www.w3.org/TR/2001/REC-SVG-20010904/DTD/svg10.dtd">
<svg version="1.0" xmlns="http://www.w3.org/2000/svg"
 width="500.000000pt" height="500.000000pt" viewBox="0 0 500.000000 500.000000"
 preserveAspectRatio="xMidYMid meet">
<metadata>
Created by potrace 1.14, written by Peter Selinger 2001-2017
</metadata>
<g transform="translate(0.000000,500.000000) scale(0.100000,-0.100000)"
fill="#000000" stroke="none">
<path d="M1995 4101 c-179 -47 -337 -116 -495 -218 -139 -91 -329 -260 -316
-282 16 -25 320 -181 353 -181 4 0 32 44 62 98 88 157 187 288 326 428 72 72
146 143 165 158 43 32 41 32 -95 -3z"/>
<path d="M2710 4094 c82 -67 255 -248 316 -329 74 -99 154 -223 190 -298 24
-48 32 -56 49 -51 39 12 211 96 288 141 l79 46 -59 59 c-232 236 -548 404
-873 463 l-35 6 45 -37z"/>
<path d="M2242 4044 c-146 -112 -297 -264 -394 -394 -54 -73 -168 -263 -168
-279 0 -9 153 -51 270 -75 90 -18 220 -34 313 -39 l67 -3 0 423 c0 233 -3 423
-7 423 -5 -1 -41 -26 -81 -56z"/>
<path d="M2470 3675 l0 -426 48 5 c26 3 81 8 122 11 144 12 470 82 470 101 0
11 -54 111 -97 177 -122 191 -271 350 -465 499 l-78 59 0 -426z"/>
<path d="M1022 3406 c-148 -223 -241 -489 -267 -763 l-7 -73 296 0 296 0 0 48
c1 132 48 380 107 556 l38 114 -92 42 c-86 39 -188 94 -274 147 l-35 22 -62
-93z"/>
<path d="M3690 3481 c-45 -34 -261 -149 -322 -172 -51 -19 -59 -25 -54 -43 2
-12 21 -72 40 -133 46 -146 73 -281 88 -437 l12 -126 299 0 300 0 -7 78 c-24
266 -119 537 -265 760 -33 50 -62 92 -63 92 -2 0 -14 -9 -28 -19z"/>
<path d="M1611 3222 c-15 -30 -70 -205 -86 -275 -21 -93 -45 -261 -45 -324 l0
-53 425 0 425 0 0 274 0 273 -107 6 c-174 10 -388 49 -555 101 -44 14 -49 14
-57 -2z"/>
<path d="M3120 3219 c-88 -36 -374 -87 -532 -96 l-118 -6 0 -274 0 -273 420 0
420 0 0 43 c-1 123 -45 354 -101 523 -33 99 -38 103 -89 83z"/>
<path d="M755 2358 c25 -274 122 -550 272 -776 l55 -83 36 22 c98 59 223 126
291 155 42 19 76 37 76 41 0 5 -17 58 -37 118 -62 182 -107 413 -108 548 l0
47 -296 0 -296 0 7 -72z"/>
<path d="M1480 2378 c1 -130 56 -397 113 -548 19 -50 29 -65 43 -63 11 0 90
19 177 42 119 31 200 45 337 58 l180 17 0 273 0 273 -425 0 -425 0 0 -52z"/>
<path d="M2470 2156 l0 -273 87 -7 c48 -3 89 -8 91 -11 2 -2 1 -32 -2 -67 l-7
-63 -85 4 -84 3 0 -422 0 -422 35 22 34 21 -2 -68 -2 -68 370 0 370 0 12 85
c7 47 14 116 16 153 l4 69 84 63 c46 35 117 94 157 132 39 38 72 67 72 66 0
-1 -63 -126 -141 -277 -77 -152 -138 -280 -134 -286 4 -6 71 -10 175 -10 l168
0 59 140 c32 77 60 140 63 140 3 0 16 -57 29 -127 13 -71 28 -134 34 -140 12
-16 332 -19 342 -3 3 5 -33 158 -80 338 l-86 329 153 299 c156 305 181 358
171 368 -4 3 -80 6 -169 6 -157 0 -163 -1 -180 -22 l-16 -23 6 28 c13 55 36
223 36 260 l0 37 -298 0 -298 0 -12 -132 c-7 -72 -15 -135 -18 -140 -3 -4 -36
-8 -73 -8 l-67 0 12 88 c7 48 13 111 13 140 l1 52 -420 0 -420 0 0 -274z m860
-351 c-5 -14 -8 -25 -5 -25 2 0 -3 -16 -11 -35 -12 -29 -12 -35 -1 -35 19 0
286 -134 319 -159 37 -30 44 -70 19 -120 l-21 -40 -67 41 c-99 60 -290 150
-310 146 -10 -2 -27 -21 -40 -43 l-22 -39 2 64 2 65 -51 6 c-28 4 -66 13 -85
22 -19 8 -42 18 -53 21 -16 6 -17 13 -11 64 4 31 8 58 9 59 1 2 35 -4 75 -13
40 -8 78 -16 84 -17 7 -1 19 13 27 30 15 32 16 33 82 33 l68 0 -10 -25z m-264
-507 c-9 -13 -20 -32 -25 -43 -5 -11 -35 -47 -66 -80 l-57 -60 6 40 c3 22 8
65 12 95 3 30 8 58 11 63 2 4 34 7 70 7 l65 0 -16 -22z"/>
<path d="M2118 1729 c-152 -18 -428 -82 -428 -100 0 -14 36 -82 77 -147 114
-178 268 -348 442 -488 58 -46 108 -84 113 -84 4 0 8 187 8 415 l0 415 -67 -1
c-38 -1 -103 -6 -145 -10z"/>
<path d="M1453 1545 c-101 -47 -273 -144 -273 -155 0 -4 44 -49 97 -100 115
-109 277 -219 423 -289 110 -52 300 -114 385 -126 l50 -6 -55 47 c-209 179
-380 391 -512 633 -9 17 -23 31 -30 30 -7 0 -46 -15 -85 -34z"/>
</g>
</svg>
