<?xml version="1.0" standalone="no"?>
<!DOCTYPE svg PUBLIC "-//W3C//DTD SVG 20010904//EN"
 "http://www.w3.org/TR/2001/REC-SVG-20010904/DTD/svg10.dtd">
<svg version="1.0" xmlns="http://www.w3.org/2000/svg"
 width="500.000000pt" height="500.000000pt" viewBox="0 0 500.000000 500.000000"
 preserveAspectRatio="xMidYMid meet">
<metadata>
Created by potrace 1.14, written by Peter Selinger 2001-2017
</metadata>
<g transform="translate(0.000000,500.000000) scale(0.100000,-0.100000)"
fill="#000000" stroke="none">
<path d="M3421 3259 c-91 -18 -163 -82 -189 -169 -17 -57 -54 -381 -49 -427 6
-53 48 -116 91 -137 119 -57 278 -6 334 108 18 36 30 93 49 244 14 116 22 215
18 240 -15 101 -130 165 -254 141z m58 -177 c13 -25 -26 -358 -45 -389 -17
-27 -24 -28 -48 -10 -17 13 -17 21 4 198 22 182 33 219 66 219 7 0 18 -8 23
-18z"/>
<path d="M1455 3249 c-10 -15 -95 -720 -89 -730 7 -11 171 -12 178 -1 2 4 12
73 21 152 25 216 24 216 58 -32 8 -58 18 -111 22 -117 8 -14 192 -15 200 -1 7
11 83 614 87 690 l3 45 -84 3 c-46 2 -88 -1 -92 -5 -4 -4 -13 -48 -19 -98 -15
-126 -32 -236 -37 -232 -2 2 -12 75 -23 162 -11 86 -23 161 -26 166 -8 13
-191 11 -199 -2z"/>
<path d="M2005 3249 c-10 -15 -95 -720 -89 -730 7 -13 171 -11 179 1 5 9 82
609 86 680 4 61 6 60 -85 60 -50 0 -88 -4 -91 -11z"/>
<path d="M2245 3228 c-7 -45 -85 -685 -85 -704 0 -12 15 -14 92 -12 l92 3 7
35 c4 19 12 81 19 138 l12 102 47 0 c138 0 232 91 247 238 8 77 -9 134 -52
176 -46 45 -96 56 -248 56 l-125 0 -6 -32z m231 -163 c31 -48 -16 -139 -62
-121 -11 4 -13 15 -9 43 3 21 8 53 11 71 6 40 36 44 60 7z"/>
<path d="M2745 3228 c-7 -45 -85 -685 -85 -704 0 -12 15 -14 92 -12 l92 3 7
35 c4 19 12 81 19 138 l12 102 47 0 c69 0 118 17 161 56 102 93 120 281 33
360 -47 43 -98 54 -247 54 l-125 0 -6 -32z m231 -163 c31 -48 -16 -139 -62
-121 -11 4 -13 15 -9 43 3 21 8 53 11 71 6 40 36 44 60 7z"/>
<path d="M3478 2408 c-78 -21 -152 -111 -165 -203 -12 -88 9 -129 119 -237 90
-88 98 -99 88 -118 -17 -31 -44 -21 -48 18 l-3 32 -94 0 -93 0 -7 -31 c-18
-82 28 -175 102 -205 40 -17 132 -18 184 -2 46 13 113 68 134 109 27 51 37
123 25 171 -10 35 -30 61 -111 138 -96 93 -110 116 -90 149 15 23 41 5 41 -28
0 -27 3 -30 43 -36 23 -4 67 -5 97 -3 l55 3 0 77 c0 72 -2 79 -30 109 -59 62
-149 83 -247 57z"/>
<path d="M3970 2411 c-145 -44 -218 -205 -153 -336 8 -16 56 -69 105 -116 76
-71 89 -89 84 -107 -12 -36 -43 -28 -50 13 l-7 35 -94 0 -93 0 -7 -39 c-13
-78 29 -162 99 -195 39 -18 132 -21 189 -5 77 21 151 113 163 202 11 79 -8
118 -100 204 -46 43 -91 90 -100 105 -21 32 -13 68 14 68 20 0 36 -33 25 -50
-11 -18 46 -31 119 -28 68 3 70 4 78 33 22 80 -24 169 -107 206 -41 19 -120
23 -165 10z"/>
<path d="M885 2398 c-5 -18 -85 -688 -85 -715 l0 -23 204 0 c113 0 207 4 210
8 3 5 8 43 12 85 l7 77 -84 0 c-133 0 -140 5 -123 89 6 30 8 31 65 31 32 0 60
4 63 8 3 5 8 42 12 84 l7 75 -57 5 c-31 3 -57 7 -59 9 -2 2 -2 25 1 52 l4 47
103 0 c74 0 106 4 114 14 6 7 14 47 17 90 l7 76 -207 0 c-156 0 -208 -3 -211
-12z"/>
<path d="M1340 2398 c0 -6 21 -90 47 -187 l47 -175 -92 -180 c-51 -100 -92
-184 -92 -188 0 -5 44 -8 98 -8 l99 0 28 70 c15 38 31 67 35 65 4 -3 13 -34
20 -70 l12 -65 100 0 c99 0 100 0 96 23 -3 12 -24 96 -48 187 l-43 165 86 172
c48 95 87 180 87 188 0 12 -17 15 -94 15 l-94 0 -23 -57 c-38 -98 -46 -103
-54 -41 -14 100 -11 98 -120 98 -65 0 -95 -4 -95 -12z"/>
<path d="M1870 2404 c0 -3 -20 -170 -45 -371 -25 -200 -45 -366 -45 -369 0 -2
44 -4 99 -4 l98 0 6 38 c3 20 11 80 17 133 l12 95 75 11 c55 8 86 19 116 39
108 77 142 271 65 369 -43 54 -83 65 -248 65 -82 0 -150 -3 -150 -6z m230
-189 c14 -17 8 -79 -11 -101 -17 -21 -58 -18 -54 4 2 9 7 38 10 65 5 36 10 47
24 47 10 0 24 -7 31 -15z"/>
<path d="M2375 2398 c-8 -22 -92 -723 -88 -730 2 -5 46 -8 98 -8 108 0 97 -16
116 160 l13 115 9 -55 c5 -30 14 -91 20 -135 l12 -80 98 -3 97 -3 0 30 c0 17
-9 90 -21 162 l-21 131 31 32 c47 49 71 111 71 188 0 77 -11 112 -48 152 -46
48 -77 56 -237 56 -107 0 -147 -3 -150 -12z m223 -180 c30 -30 2 -108 -40
-108 -20 0 -22 18 -12 83 7 39 28 49 52 25z"/>
<path d="M2885 2398 c-8 -22 -92 -723 -88 -730 2 -5 96 -8 208 -8 232 0 209
-11 221 103 l6 67 -88 0 c-121 0 -131 4 -127 43 10 79 8 77 73 77 67 0 65 -3
75 101 l7 66 -56 5 c-31 3 -59 7 -62 10 -3 4 -2 27 1 52 l7 46 103 0 c70 0
106 4 113 13 5 6 13 47 17 90 l7 77 -206 0 c-156 0 -208 -3 -211 -12z"/>
</g>
</svg>
